<svg width="237" height="151" viewBox="0 0 237 151" fill="none" xmlns="http://www.w3.org/2000/svg">
<path d="M1.58157 10.44C1.68981 11.0581 2.40766 11.4151 3.18494 11.2372C3.96222 11.0594 4.50458 10.4142 4.39634 9.79609L2.82854 0.842452C2.72031 0.224332 2.00246 -0.132611 1.22518 0.0451993C0.447899 0.22301 -0.0944815 0.86825 0.0137536 1.48637L1.58157 10.44Z" fill="#1FDE82"/>
<path d="M8.53057 27.812C8.81278 28.3725 9.60314 28.5068 10.2959 28.112C10.9887 27.7172 11.3215 26.9428 11.0393 26.3823L6.95146 18.2635C6.66925 17.703 5.87889 17.5686 5.18613 17.9634C4.49337 18.3582 4.16054 19.1327 4.44275 19.6932L8.53057 27.812Z" fill="#1FDE82"/>
<path d="M22.5253 40.9958C23.0229 41.3782 23.7931 41.156 24.2458 40.4995C24.6984 39.8431 24.662 39.001 24.1644 38.6186L16.9569 33.0799C16.4593 32.6975 15.689 32.9197 15.2364 33.5761C14.7838 34.2326 14.8202 35.0747 15.3178 35.4571L22.5253 40.9958Z" fill="#1FDE82"/>
<path d="M39.964 48.3915C40.5608 48.5856 41.2125 48.1187 41.4198 47.3488C41.627 46.5788 41.3112 45.7973 40.7145 45.6032L32.0703 42.7917C31.4736 42.5976 30.8218 43.0644 30.6146 43.8344C30.4074 44.6044 30.7231 45.3859 31.3199 45.58L39.964 48.3915Z" fill="#1FDE82"/>
<path d="M59.146 53.1156C59.7546 53.2685 60.3729 52.7583 60.5271 51.976C60.6813 51.1937 60.313 50.4356 59.7043 50.2827L50.8885 48.0677C50.2799 47.9147 49.6615 48.425 49.5073 49.2073C49.3531 49.9896 49.7215 50.7477 50.3301 50.9007L59.146 53.1156Z" fill="#1FDE82"/>
<path d="M78.1794 57.8351C78.788 57.988 79.4064 57.4778 79.5606 56.6955C79.7148 55.9132 79.3464 55.1551 78.7378 55.0021L69.9219 52.7871C69.3133 52.6342 68.6949 53.1445 68.5407 53.9268C68.3866 54.7091 68.7549 55.4672 69.3635 55.6201L78.1794 57.8351Z" fill="#1FDE82"/>
<path d="M98.3963 61.0268C99.0165 61.1225 99.5847 60.557 99.6656 59.7638C99.7464 58.9705 99.3092 58.2499 98.689 58.1542L89.7055 56.7679C89.0853 56.6722 88.517 57.2377 88.4362 58.0309C88.3553 58.8242 88.7926 59.5448 89.4127 59.6405L98.3963 61.0268Z" fill="#1FDE82"/>
<path d="M118.616 62.5018C119.243 62.5241 119.741 61.8958 119.729 61.0985C119.716 60.3013 119.197 59.637 118.57 59.6147L109.486 59.2928C108.858 59.2706 108.36 59.8989 108.373 60.6961C108.386 61.4934 108.905 62.1577 109.532 62.18L118.616 62.5018Z" fill="#1FDE82"/>
<path d="M140.542 63.9308C141.169 63.953 141.667 63.3247 141.654 62.5275C141.641 61.7302 141.122 61.0659 140.495 61.0437L131.411 60.7218C130.784 60.6996 130.286 61.3278 130.299 62.1251C130.311 62.9224 130.83 63.5867 131.457 63.6089L140.542 63.9308Z" fill="#1FDE82"/>
<path d="M160.833 69.2483C161.424 69.461 162.09 69.0148 162.321 68.2517C162.552 67.4886 162.261 66.6976 161.671 66.4849L153.119 63.4042C152.529 63.1915 151.862 63.6377 151.631 64.4008C151.4 65.1639 151.691 65.9549 152.282 66.1676L160.833 69.2483Z" fill="#1FDE82"/>
<path d="M175.475 79.8669C175.943 80.2851 176.728 80.1207 177.228 79.4997C177.728 78.8787 177.754 78.0362 177.286 77.6179L170.51 71.5595C170.042 71.1413 169.257 71.3057 168.757 71.9267C168.257 72.5477 168.231 73.3902 168.699 73.8085L175.475 79.8669Z" fill="#1FDE82"/>
<path d="M186.347 94.5022C186.668 95.0416 187.465 95.1203 188.129 94.6781C188.792 94.2358 189.07 93.44 188.75 92.9006L184.104 85.0874C183.783 84.548 182.986 84.4693 182.322 84.9116C181.659 85.3538 181.381 86.1496 181.702 86.689L186.347 94.5022Z" fill="#1FDE82"/>
<path d="M198.333 109.331C198.779 109.773 199.571 109.649 200.102 109.054C200.633 108.459 200.702 107.619 200.256 107.177L193.796 100.782C193.351 100.341 192.559 100.465 192.027 101.06C191.496 101.655 191.427 102.495 191.873 102.936L198.333 109.331Z" fill="#1FDE82"/>
<path d="M213.722 121.92C214.208 122.318 214.985 122.119 215.458 121.478C215.93 120.836 215.92 119.993 215.435 119.595L208.404 113.834C207.918 113.436 207.141 113.635 206.668 114.277C206.196 114.919 206.206 115.761 206.691 116.159L213.722 121.92Z" fill="#1FDE82"/>
<path d="M225.1 136.774C225.416 137.316 226.213 137.402 226.88 136.966C227.548 136.53 227.833 135.737 227.518 135.195L222.945 127.338C222.63 126.796 221.833 126.71 221.165 127.146C220.498 127.582 220.212 128.375 220.528 128.917L225.1 136.774Z" fill="#1FDE82"/>
<path d="M230.53 149.911C231.276 150.246 232.156 149.953 232.495 149.256L236.176 141.682C236.515 140.985 236.185 140.149 235.439 139.813C234.693 139.478 233.814 139.772 233.475 140.469L230.407 146.78L223.654 143.746C222.908 143.411 222.029 143.704 221.69 144.401C221.351 145.098 221.681 145.935 222.427 146.27L230.53 149.911Z" fill="#1FDE82"/>
</svg>
