<svg width="282" height="167" viewBox="0 0 282 167" fill="none" xmlns="http://www.w3.org/2000/svg">
<path d="M276.745 10.4347C276.603 11.0459 277.124 11.655 277.909 11.7952C278.694 11.9353 279.446 11.5534 279.588 10.9422L281.644 2.08797C281.786 1.47672 281.265 0.86759 280.48 0.727451C279.695 0.587313 278.944 0.969225 278.802 1.58048L276.745 10.4347Z" fill="#1FDE82"/>
<path d="M270.007 27.4177C269.732 27.9818 270.103 28.692 270.837 29.0041C271.571 29.3161 272.389 29.1119 272.664 28.5478L276.648 20.3774C276.923 19.8134 276.551 19.1032 275.817 18.7911C275.083 18.479 274.265 18.6833 273.99 19.2473L270.007 27.4177Z" fill="#1FDE82"/>
<path d="M262.007 44.4177C261.732 44.9818 262.103 45.692 262.837 46.0041C263.571 46.3161 264.389 46.1119 264.664 45.5478L268.648 37.3774C268.923 36.8134 268.551 36.1032 267.817 35.7911C267.083 35.479 266.265 35.6833 265.99 36.2473L262.007 44.4177Z" fill="#1FDE82"/>
<path d="M252.746 60.1515C252.428 60.6927 252.744 61.4294 253.451 61.7971C254.159 62.1647 254.99 62.024 255.308 61.4828L259.909 53.6434C260.227 53.1023 259.91 52.3655 259.203 51.9979C258.495 51.6302 257.664 51.7709 257.347 52.3121L252.746 60.1515Z" fill="#1FDE82"/>
<path d="M243.717 75.9574C243.399 76.4986 243.715 77.2353 244.423 77.603C245.131 77.9706 245.962 77.8299 246.279 77.2887L250.88 69.4494C251.198 68.9082 250.882 68.1714 250.174 67.8038C249.467 67.4361 248.636 67.5768 248.318 68.118L243.717 75.9574Z" fill="#1FDE82"/>
<path d="M233.717 91.9574C233.399 92.4986 233.715 93.2353 234.423 93.603C235.131 93.9706 235.962 93.8299 236.279 93.2887L240.88 85.4494C241.198 84.9082 240.882 84.1714 240.174 83.8038C239.467 83.4361 238.636 83.5768 238.318 84.118L233.717 91.9574Z" fill="#1FDE82"/>
<path d="M221.518 104.787C221.044 105.199 221.11 105.998 221.663 106.572C222.217 107.145 223.049 107.277 223.523 106.865L230.381 100.899C230.854 100.487 230.789 99.6876 230.235 99.1138C229.682 98.54 228.849 98.4087 228.376 98.8206L221.518 104.787Z" fill="#1FDE82"/>
<path d="M205.075 110.674C204.472 110.849 204.195 111.601 204.456 112.354C204.717 113.108 205.417 113.577 206.02 113.403L214.751 110.876C215.354 110.702 215.631 109.95 215.37 109.196C215.11 108.443 214.41 107.973 213.807 108.148L205.075 110.674Z" fill="#1FDE82"/>
<path d="M186.779 111.201C186.152 111.172 185.647 111.794 185.65 112.591C185.653 113.388 186.163 114.059 186.79 114.089L195.87 114.522C196.497 114.552 197.002 113.929 196.999 113.132C196.996 112.335 196.485 111.664 195.859 111.634L186.779 111.201Z" fill="#1FDE82"/>
<path d="M169.257 106.372C168.667 106.157 168 106.601 167.766 107.364C167.533 108.126 167.822 108.918 168.411 109.133L176.954 112.239C177.544 112.453 178.211 112.009 178.445 111.247C178.678 110.484 178.389 109.692 177.8 109.478L169.257 106.372Z" fill="#1FDE82"/>
<path d="M154.272 97.3822C153.77 97.0061 153.003 97.2378 152.558 97.8998C152.114 98.5618 152.161 99.4034 152.663 99.7795L159.939 105.228C160.441 105.605 161.208 105.373 161.653 104.711C162.097 104.049 162.05 103.207 161.548 102.831L154.272 97.3822Z" fill="#1FDE82"/>
<path d="M137.367 90.4587C136.767 90.2748 136.123 90.7526 135.929 91.526C135.735 92.2993 136.064 93.0754 136.664 93.2593L145.355 95.9236C145.955 96.1075 146.598 95.6297 146.792 94.8563C146.987 94.083 146.658 93.3069 146.058 93.123L137.367 90.4587Z" fill="#1FDE82"/>
<path d="M118.53 90.4381C117.905 90.4867 117.481 91.1671 117.583 91.9578C117.686 92.7485 118.276 93.3502 118.902 93.3016L127.965 92.5984C128.59 92.5498 129.014 91.8694 128.912 91.0787C128.809 90.288 128.219 89.6863 127.593 89.7348L118.53 90.4381Z" fill="#1FDE82"/>
<path d="M99.8199 95.7205C99.2389 95.9577 99.0428 96.735 99.3818 97.4567C99.7208 98.1784 100.467 98.5712 101.048 98.334L109.463 94.8982C110.044 94.661 110.24 93.8836 109.901 93.1619C109.562 92.4402 108.816 92.0475 108.235 92.2847L99.8199 95.7205Z" fill="#1FDE82"/>
<path d="M82.8199 102.72C82.2389 102.958 82.0428 103.735 82.3818 104.457C82.7208 105.178 83.4666 105.571 84.0476 105.334L92.4631 101.898C93.0441 101.661 93.2402 100.884 92.9012 100.162C92.5622 99.4402 91.8164 99.0475 91.2354 99.2847L82.8199 102.72Z" fill="#1FDE82"/>
<path d="M65.8199 109.72C65.2389 109.958 65.0428 110.735 65.3818 111.457C65.7208 112.178 66.4666 112.571 67.0476 112.334L75.4631 108.898C76.0441 108.661 76.2402 107.884 75.9012 107.162C75.5622 106.44 74.8164 106.047 74.2354 106.285L65.8199 109.72Z" fill="#1FDE82"/>
<path d="M48.8864 118.207C48.3324 118.501 48.216 119.295 48.6264 119.978C49.0368 120.662 49.8185 120.977 50.3725 120.682L58.3967 116.412C58.9506 116.117 59.067 115.324 58.6566 114.64C58.2462 113.956 57.4645 113.641 56.9105 113.936L48.8864 118.207Z" fill="#1FDE82"/>
<path d="M33.7418 128.379C33.2351 128.749 33.2322 129.551 33.7352 130.17C34.2382 130.788 35.0567 130.99 35.5634 130.62L42.9022 125.256C43.4089 124.886 43.4118 124.084 42.9088 123.465C42.4058 122.847 41.5872 122.645 41.0806 123.016L33.7418 128.379Z" fill="#1FDE82"/>
<path d="M21.221 140.332C20.7713 140.77 20.881 141.564 21.4659 142.106C22.0507 142.648 22.8894 142.732 23.339 142.295L29.8523 135.954C30.3019 135.516 30.1923 134.722 29.6074 134.18C29.0225 133.638 28.1838 133.554 27.7342 133.991L21.221 140.332Z" fill="#1FDE82"/>
<path d="M10.004 153.627C9.63052 154.131 9.86628 154.897 10.5306 155.338C11.1949 155.779 12.0363 155.728 12.4098 155.224L17.8202 147.919C18.1937 147.415 17.9579 146.649 17.2936 146.208C16.6293 145.767 15.7879 145.818 15.4144 146.323L10.004 153.627Z" fill="#1FDE82"/>
<path d="M4.17661 165.686C4.46193 166.452 5.28852 166.872 6.02269 166.624L13.9993 163.925C14.7335 163.677 15.0974 162.854 14.8121 162.088C14.5268 161.322 13.7002 160.902 12.966 161.15L6.31884 163.399L3.73561 156.461C3.45029 155.694 2.62369 155.274 1.88952 155.523C1.15534 155.771 0.791405 156.594 1.07672 157.36L4.17661 165.686Z" fill="#1FDE82"/>
</svg>
