<svg width="153" height="146" viewBox="0 0 153 146" fill="none" xmlns="http://www.w3.org/2000/svg">
<path d="M136.551 25.2363C136.353 25.8318 136.816 26.4866 137.584 26.699C138.353 26.9114 139.136 26.6009 139.334 26.0055L142.2 17.3807C142.398 16.7853 141.935 16.1304 141.166 15.918C140.398 15.7056 139.614 16.0161 139.416 16.6116L136.551 25.2363Z" fill="#1FDE82"/>
<path d="M137.174 44.0594C137.266 44.6801 137.974 45.0557 138.756 44.8982C139.538 44.7407 140.097 44.1098 140.004 43.4891L138.67 34.4976C138.578 33.8769 137.87 33.5014 137.088 33.6589C136.307 33.8164 135.748 34.4472 135.84 35.068L137.174 44.0594Z" fill="#1FDE82"/>
<path d="M142.749 61.8314C142.996 62.4084 143.776 62.592 144.492 62.2414C145.209 61.8907 145.589 61.1387 145.343 60.5616L141.772 52.2027C141.525 51.6256 140.745 51.442 140.028 51.7926C139.312 52.1433 138.932 52.8953 139.178 53.4724L142.749 61.8314Z" fill="#1FDE82"/>
<path d="M146.043 78.7003C146.073 79.3271 146.741 79.7709 147.534 79.6915C148.327 79.6121 148.946 79.0396 148.916 78.4128L148.478 69.3335C148.448 68.7067 147.78 68.2629 146.987 68.3423C146.193 68.4217 145.575 68.9942 145.605 69.621L146.043 78.7003Z" fill="#1FDE82"/>
<path d="M139.249 94.6768C138.956 95.2313 139.304 95.9536 140.027 96.29C140.749 96.6264 141.574 96.4496 141.867 95.8951L146.122 87.8624C146.416 87.3078 146.068 86.5855 145.345 86.2491C144.622 85.9127 143.798 86.0896 143.504 86.6441L139.249 94.6768Z" fill="#1FDE82"/>
<path d="M126.008 105.424C125.471 105.748 125.397 106.546 125.844 107.207C126.29 107.868 127.088 108.141 127.625 107.816L135.409 103.122C135.946 102.798 136.02 102 135.574 101.339C135.127 100.678 134.33 100.405 133.792 100.729L126.008 105.424Z" fill="#1FDE82"/>
<path d="M109.447 109.511C108.832 109.634 108.492 110.36 108.689 111.133C108.885 111.906 109.543 112.433 110.158 112.31L119.072 110.528C119.687 110.405 120.027 109.679 119.831 108.906C119.634 108.133 118.976 107.606 118.361 107.729L109.447 109.511Z" fill="#1FDE82"/>
<path d="M90.9992 106.725C90.3831 106.605 89.7935 107.149 89.6823 107.938C89.571 108.728 89.9803 109.465 90.5963 109.584L99.52 111.314C100.136 111.434 100.726 110.89 100.837 110.101C100.948 109.311 100.539 108.574 99.9228 108.455L90.9992 106.725Z" fill="#1FDE82"/>
<path d="M73.1005 101.017C72.5074 100.812 71.8472 101.267 71.626 102.033C71.4047 102.799 71.7061 103.586 72.2992 103.791L80.8905 106.76C81.4836 106.965 82.1438 106.51 82.365 105.744C82.5863 104.978 82.2849 104.191 81.6918 103.986L73.1005 101.017Z" fill="#1FDE82"/>
<path d="M53.6614 97.6942C53.0348 97.6603 52.5252 98.2792 52.5233 99.0766C52.5213 99.8739 53.0277 100.548 53.6543 100.582L62.7309 101.072C63.3575 101.106 63.8671 100.487 63.869 99.6899C63.871 98.8925 63.3646 98.2187 62.738 98.1848L53.6614 97.6942Z" fill="#1FDE82"/>
<path d="M34.3037 101.303C33.7088 101.503 33.4637 102.266 33.7562 103.008C34.0487 103.75 34.7681 104.189 35.3629 103.989L43.9796 101.094C44.5745 100.895 44.8196 100.131 44.5271 99.3895C44.2345 98.6478 43.5152 98.2084 42.9203 98.4083L34.3037 101.303Z" fill="#1FDE82"/>
<path d="M19.6011 113.287C19.1638 113.737 19.2955 114.528 19.8952 115.053C20.4949 115.579 21.3356 115.64 21.7729 115.19L28.1075 108.671C28.5448 108.221 28.4131 107.43 27.8134 106.904C27.2137 106.379 26.373 106.318 25.9357 106.768L19.6011 113.287Z" fill="#1FDE82"/>
<path d="M10.3505 129.802C10.0736 130.366 10.4432 131.077 11.1759 131.391C11.9087 131.706 12.7271 131.504 13.004 130.941L17.0141 122.784C17.291 122.221 16.9214 121.509 16.1887 121.195C15.4559 120.88 14.6375 121.082 14.3606 121.645L10.3505 129.802Z" fill="#1FDE82"/>
<path d="M3.45129 144.611C3.71785 145.384 4.53395 145.823 5.27396 145.593L13.314 143.09C14.054 142.86 14.4378 142.046 14.1713 141.273C13.9047 140.5 13.0886 140.06 12.3486 140.29L5.64862 142.376L3.23524 135.378C2.96868 134.604 2.15258 134.165 1.41257 134.395C0.672557 134.625 0.28868 135.439 0.555236 136.212L3.45129 144.611Z" fill="#1FDE82"/>
<path d="M144.459 7.98093C144.101 8.49596 144.359 9.25502 145.036 9.67636C145.713 10.0977 146.553 10.0217 146.911 9.50671L152.102 2.04639C152.46 1.53136 152.202 0.772285 151.525 0.350949C150.848 -0.0703869 150.009 0.00556853 149.65 0.520597L144.459 7.98093Z" fill="#1FDE82"/>
</svg>
