<svg width="293" height="151" viewBox="0 0 293 151" fill="none" xmlns="http://www.w3.org/2000/svg">
<path d="M10.6608 26.7193C10.9359 27.2834 10.564 27.9936 9.83024 28.3057C9.09649 28.6177 8.27873 28.4135 8.00371 27.8494L4.01991 19.679C3.74489 19.115 4.11675 18.4048 4.85051 18.0927C5.58426 17.7806 6.40205 17.9849 6.67707 18.5489L10.6608 26.7193Z" fill="#1FDE82"/>
<path d="M19.922 42.4531C20.2396 42.9943 19.9235 43.731 19.216 44.0987C18.5085 44.4663 17.6774 44.3256 17.3597 43.7844L12.7586 35.945C12.441 35.4039 12.7571 34.6671 13.4646 34.2995C14.1722 33.9318 15.0032 34.0725 15.3209 34.6137L19.922 42.4531Z" fill="#1FDE82"/>
<path d="M28.9504 58.259C29.2681 58.8002 28.952 59.5369 28.2444 59.9046C27.5369 60.2722 26.7058 60.1315 26.3882 59.5903L21.7871 51.751C21.4694 51.2098 21.7855 50.473 22.4931 50.1054C23.2006 49.7377 24.0317 49.8784 24.3493 50.4196L28.9504 58.259Z" fill="#1FDE82"/>
<path d="M38.9504 74.259C39.2681 74.8002 38.952 75.5369 38.2444 75.9046C37.5369 76.2722 36.7058 76.1315 36.3882 75.5903L31.7871 67.751C31.4694 67.2098 31.7855 66.473 32.4931 66.1054C33.2006 65.7377 34.0317 65.8784 34.3493 66.4196L38.9504 74.259Z" fill="#1FDE82"/>
<path d="M51.1496 87.0885C51.623 87.5004 51.558 88.2995 51.0043 88.8733C50.4506 89.4471 49.618 89.5783 49.1446 89.1664L42.2868 83.2001C41.8134 82.7882 41.8784 81.9892 42.4321 81.4154C42.9857 80.8416 43.8184 80.7103 44.2918 81.1222L51.1496 87.0885Z" fill="#1FDE82"/>
<path d="M67.5924 92.9758C68.1952 93.1503 68.4724 93.9025 68.2116 94.656C67.9508 95.4095 67.2508 95.8789 66.648 95.7045L57.9163 93.1779C57.3135 93.0035 57.0362 92.2512 57.297 91.4977C57.5578 90.7442 58.2579 90.2748 58.8607 90.4492L67.5924 92.9758Z" fill="#1FDE82"/>
<path d="M85.8885 93.503C86.5153 93.4731 87.0209 94.0953 87.0178 94.8926C87.0147 95.69 86.504 96.3606 85.8772 96.3905L76.7976 96.8233C76.1708 96.8532 75.6652 96.231 75.6683 95.4337C75.6714 94.6363 76.1821 93.9657 76.8089 93.9358L85.8885 93.503Z" fill="#1FDE82"/>
<path d="M103.41 88.6732C104 88.4588 104.668 88.903 104.901 89.6654C105.135 90.4278 104.846 91.2197 104.256 91.4341L95.7134 94.5404C95.1237 94.7548 94.4563 94.3106 94.2228 93.5482C93.9893 92.7858 94.2781 91.9939 94.8678 91.7795L103.41 88.6732Z" fill="#1FDE82"/>
<path d="M118.395 79.6838C118.897 79.3077 119.665 79.5394 120.109 80.2014C120.554 80.8634 120.507 81.705 120.005 82.0811L112.729 87.53C112.227 87.9062 111.459 87.6745 111.015 87.0125C110.57 86.3505 110.617 85.5089 111.119 85.1327L118.395 79.6838Z" fill="#1FDE82"/>
<path d="M3.92424 10.5144C3.99563 11.1378 3.40839 11.6836 2.61259 11.7334C1.81679 11.7832 1.1138 11.3181 1.0424 10.6947L0.00819748 1.66382C-0.063198 1.04037 0.52404 0.494598 1.31984 0.444814C2.11565 0.39503 2.81867 0.860078 2.89006 1.48353L3.92424 10.5144Z" fill="#1FDE82"/>
<path d="M131.943 68.539C132.446 68.1641 133.213 68.3979 133.656 69.061C134.099 69.7242 134.05 70.5657 133.546 70.9405L126.256 76.3703C125.753 76.7451 124.986 76.5114 124.544 75.8482C124.101 75.1851 124.15 74.3436 124.653 73.9687L131.943 68.539Z" fill="#1FDE82"/>
<path d="M145.943 57.539C146.446 57.1641 147.213 57.3979 147.656 58.061C148.099 58.7242 148.05 59.5657 147.546 59.9405L140.256 65.3703C139.753 65.7451 138.986 65.5114 138.544 64.8482C138.101 64.1851 138.15 63.3436 138.653 62.9687L145.943 57.539Z" fill="#1FDE82"/>
<path d="M161.555 48.0665C162.113 47.7806 162.831 48.1386 163.157 48.8661C163.483 49.5937 163.295 50.4153 162.736 50.7012L154.645 54.8428C154.086 55.1287 153.369 54.7707 153.042 54.0431C152.716 53.3156 152.905 52.494 153.463 52.208L161.555 48.0665Z" fill="#1FDE82"/>
<path d="M180.26 43.6148C180.881 43.5271 181.442 44.0999 181.513 44.8941C181.583 45.6884 181.137 46.4033 180.515 46.4909L171.515 47.7609C170.893 47.8485 170.332 47.2758 170.262 46.4815C170.191 45.6873 170.638 44.9724 171.259 44.8847L180.26 43.6148Z" fill="#1FDE82"/>
<path d="M199.69 42.8604C200.317 42.8634 200.79 43.5112 200.745 44.3073C200.7 45.1034 200.155 45.7463 199.527 45.7433L190.437 45.6993C189.81 45.6963 189.338 45.0485 189.383 44.2524C189.428 43.4563 189.973 42.8134 190.6 42.8164L199.69 42.8604Z" fill="#1FDE82"/>
<path d="M218.822 47.0406C219.403 47.2787 219.598 48.0563 219.258 48.7775C218.918 49.4987 218.171 49.8903 217.591 49.6523L209.18 46.2039C208.6 45.9658 208.405 45.1882 208.745 44.467C209.085 43.7458 209.831 43.3541 210.412 43.5922L218.822 47.0406Z" fill="#1FDE82"/>
<path d="M233.508 57.3848C233.998 57.7772 233.965 58.5782 233.435 59.174C232.905 59.7698 232.079 59.9348 231.589 59.5425L224.495 53.8597C224.005 53.4674 224.037 52.6664 224.567 52.0706C225.097 51.4748 225.924 51.3098 226.413 51.7021L233.508 57.3848Z" fill="#1FDE82"/>
<path d="M246.479 70.6678C246.887 71.1446 246.706 71.9255 246.074 72.412C245.442 72.8986 244.599 72.9065 244.191 72.4297L238.281 65.5235C237.873 65.0467 238.055 64.2658 238.686 63.7792C239.318 63.2927 240.161 63.2848 240.569 63.7616L246.479 70.6678Z" fill="#1FDE82"/>
<path d="M256.408 85.284C256.741 85.8155 256.447 86.5613 255.751 86.9498C255.054 87.3383 254.22 87.2223 253.886 86.6908L249.054 78.9914C248.721 78.4598 249.015 77.714 249.711 77.3256C250.408 76.9371 251.242 77.053 251.576 77.5846L256.408 85.284Z" fill="#1FDE82"/>
<path d="M265.78 101.166C266.113 101.697 265.819 102.443 265.123 102.831C264.426 103.22 263.591 103.104 263.258 102.572L258.426 94.873C258.093 94.3414 258.387 93.5956 259.083 93.2071C259.779 92.8187 260.614 92.9346 260.948 93.4662L265.78 101.166Z" fill="#1FDE82"/>
<path d="M274.558 117.407C274.855 117.96 274.511 118.685 273.79 119.025C273.069 119.365 272.244 119.193 271.947 118.64L267.648 110.631C267.351 110.078 267.695 109.354 268.416 109.014C269.137 108.673 269.962 108.846 270.259 109.399L274.558 117.407Z" fill="#1FDE82"/>
<path d="M282.558 133.408C282.855 133.96 282.511 134.685 281.79 135.025C281.069 135.365 280.244 135.193 279.947 134.64L275.648 126.631C275.351 126.078 275.695 125.354 276.416 125.014C277.137 124.673 277.962 124.846 278.259 125.399L282.558 133.408Z" fill="#1FDE82"/>
<path d="M288.962 149.36C288.612 150.099 287.752 150.446 287.042 150.135L279.328 146.759C278.618 146.448 278.327 145.597 278.677 144.858C279.027 144.119 279.887 143.772 280.597 144.083L287.025 146.897L290.198 140.208C290.548 139.469 291.408 139.122 292.118 139.433C292.828 139.743 293.119 140.595 292.769 141.333L288.962 149.36Z" fill="#1FDE82"/>
</svg>
